<?xml version="1.0" standalone="no"?>
<!DOCTYPE svg PUBLIC "-//W3C//DTD SVG 20010904//EN"
 "http://www.w3.org/TR/2001/REC-SVG-20010904/DTD/svg10.dtd">
<svg version="1.0" xmlns="http://www.w3.org/2000/svg"
 width="512.000000pt" height="512.000000pt" viewBox="0 0 512.000000 512.000000"
 preserveAspectRatio="xMidYMid meet">
<metadata>
Created by potrace 1.14, written by Peter Selinger 2001-2017
</metadata>
<g transform="translate(0.000000,512.000000) scale(0.100000,-0.100000)"
fill="#000000" stroke="none">
<path d="M259 5106 c-102 -27 -181 -95 -228 -196 l-26 -55 0 -397 c0 -461 -6
-432 102 -448 144 -20 232 -117 233 -255 0 -142 -94 -239 -251 -260 -29 -4
-54 -14 -65 -26 -18 -20 -19 -73 -19 -1613 l0 -1591 26 -56 c37 -79 90 -133
167 -171 l67 -33 346 -3 346 -3 30 25 c25 21 31 35 36 79 10 95 69 181 152
218 54 25 156 25 210 0 83 -37 142 -123 152 -218 5 -43 11 -58 35 -78 l30 -25
908 0 c578 0 918 4 935 10 28 11 55 62 55 107 0 39 42 122 76 155 96 90 262
90 357 0 41 -38 68 -96 77 -165 16 -108 -13 -102 448 -102 l397 0 67 33 c77
38 130 92 167 171 l26 56 0 397 c0 460 6 432 -102 448 -105 14 -173 62 -212
150 -41 89 -20 212 47 284 33 34 116 76 155 76 45 0 96 27 107 56 7 17 9 557
8 1603 l-3 1576 -33 67 c-38 77 -92 130 -171 167 l-56 26 -397 0 c-461 0 -432
6 -448 -102 -20 -144 -117 -232 -255 -233 -142 0 -239 94 -260 251 -12 92 77
84 -970 87 l-923 2 -30 -25 c-24 -20 -30 -35 -35 -78 -10 -95 -69 -181 -152
-218 -54 -25 -156 -25 -210 0 -83 37 -142 123 -152 218 -5 43 -11 58 -35 78
l-30 25 -326 -1 c-226 0 -341 -4 -373 -13z m621 -213 c37 -107 119 -195 229
-247 61 -29 74 -31 171 -31 97 0 110 2 171 31 111 53 192 141 228 247 l18 52
386 3 387 2 0 -425 c0 -519 -3 -505 117 -518 66 -7 121 -36 163 -83 45 -52 62
-99 62 -169 0 -71 -17 -117 -63 -170 -39 -44 -119 -85 -166 -85 -52 0 -83 -17
-98 -55 -12 -28 -15 -105 -15 -414 l0 -379 -162 -7 c-90 -3 -263 -5 -386 -3
l-223 3 -18 52 c-80 237 -350 352 -579 248 -105 -48 -186 -138 -223 -247 l-18
-53 -345 -3 -346 -2 0 348 0 348 53 17 c236 74 355 364 242 589 -52 103 -152
191 -251 218 l-44 13 0 318 c0 200 4 328 11 346 14 37 57 82 94 99 23 10 93
13 308 11 l279 -2 18 -52z m2460 40 c0 -10 13 -46 30 -81 39 -84 120 -164 207
-205 64 -30 75 -32 178 -32 103 0 114 2 178 32 87 41 168 121 207 205 17 35
30 71 30 81 0 16 21 17 308 17 192 0 322 -4 347 -11 50 -14 100 -64 114 -114
8 -28 11 -363 11 -1107 l0 -1068 -388 0 -389 0 -13 43 c-19 64 -55 119 -113
175 -124 116 -285 150 -440 92 -115 -43 -220 -149 -253 -256 l-18 -54 -343 0
-343 0 0 343 0 344 43 12 c188 56 325 278 289 471 -29 160 -147 298 -289 340
l-43 13 0 389 0 388 345 0 c322 0 345 -1 345 -17z m-1981 -2129 c99 -29 181
-140 181 -245 0 -15 9 -37 19 -50 l19 -24 449 -5 448 -5 5 -410 c3 -225 7
-411 8 -412 12 -13 67 -33 88 -33 93 0 200 -84 228 -179 20 -68 20 -84 0 -150
-27 -93 -135 -181 -222 -181 -39 0 -87 -23 -96 -45 -3 -9 -6 -214 -6 -456 l0
-439 -391 2 -390 3 -24 60 c-48 117 -132 203 -242 246 -82 32 -224 32 -306 0
-110 -43 -194 -129 -242 -246 l-24 -60 -279 -3 c-274 -2 -279 -2 -322 21 -30
16 -51 37 -67 67 l-23 43 0 1089 0 1088 400 0 401 0 24 25 c15 14 25 36 25 53
0 103 81 217 176 246 64 19 99 19 163 0z m2508 -12 c79 -41 143 -138 143 -216
0 -31 16 -66 39 -83 12 -9 126 -12 459 -13 l442 0 0 -348 0 -347 -52 -19
c-242 -85 -354 -351 -245 -580 52 -111 162 -204 270 -230 l27 -6 0 -326 c0
-319 0 -327 -22 -366 -13 -22 -41 -51 -64 -64 l-41 -24 -326 0 -325 0 -17 50
c-94 283 -438 379 -675 189 -51 -41 -103 -119 -125 -187 l-17 -52 -349 0 -349
0 0 389 0 388 46 13 c58 17 149 76 193 125 19 22 48 69 65 105 29 60 31 73 31
176 0 107 -1 112 -38 186 -54 110 -141 184 -255 219 l-42 12 2 346 3 346 395
2 c274 2 402 6 417 14 25 13 43 56 43 103 1 85 86 183 190 217 40 13 133 3
177 -19z"/>
<path d="M4375 4755 c-36 -35 -37 -85 -3 -122 19 -20 32 -23 127 -25 l106 -3
5 -703 5 -704 24 -19 c33 -27 86 -25 116 6 l25 24 0 756 0 757 -29 29 -29 29
-162 0 c-158 0 -161 -1 -185 -25z"/>
<path d="M373 1936 l-28 -24 0 -761 0 -760 23 -23 c22 -22 29 -23 186 -23 160
0 165 1 190 24 35 33 35 83 1 116 -23 23 -31 25 -130 25 l-105 0 0 690 c0 587
-2 695 -15 719 -24 48 -77 55 -122 17z"/>
</g>
</svg>
